<svg width="32" height="32" viewBox="0 0 32 32" fill="none" xmlns="http://www.w3.org/2000/svg">
<path d="M22.6667 17.3333H17.3333V22.6667H14.6667V17.3333H9.33332V14.6667H14.6667V9.33332H17.3333V14.6667H22.6667M16 2.66666C14.249 2.66666 12.5152 3.01153 10.8975 3.6816C9.27987 4.35166 7.81001 5.33378 6.5719 6.5719C4.07141 9.07238 2.66666 12.4638 2.66666 16C2.66666 19.5362 4.07141 22.9276 6.5719 25.4281C7.81001 26.6662 9.27987 27.6483 10.8975 28.3184C12.5152 28.9884 14.249 29.3333 16 29.3333C19.5362 29.3333 22.9276 27.9286 25.4281 25.4281C27.9286 22.9276 29.3333 19.5362 29.3333 16C29.3333 14.249 28.9884 12.5152 28.3184 10.8975C27.6483 9.27987 26.6662 7.81001 25.4281 6.5719C24.19 5.33378 22.7201 4.35166 21.1024 3.6816C19.4848 3.01153 17.7509 2.66666 16 2.66666Z" fill="#4F6F52"/>
</svg>
